<svg width="125" height="43" viewBox="0 0 125 43" fill="none" xmlns="http://www.w3.org/2000/svg">
<g clip-path="url(#clip0_179_1536)">
<path d="M78.0218 23.6393C78.0218 34.3292 61.2209 43 40.5035 43C19.7862 43 2.97797 34.3292 2.97797 23.6393C2.97797 12.9493 19.7765 4.27208 40.5035 4.27208C61.2306 4.27208 78.0218 12.9437 78.0218 23.6393Z" fill="#E87200"/>
<path d="M76.4034 23.6393C76.4034 33.4657 60.3262 41.4296 40.4939 41.4296C20.6617 41.4296 4.58447 33.4657 4.58447 23.6393C4.58447 13.8129 20.6609 5.84328 40.4939 5.84328C60.327 5.84328 76.4034 13.808 76.4034 23.6393Z" fill="#E87200"/>
<path d="M40.4941 41.7275C30.8579 41.7275 21.7922 39.869 14.9711 36.4888C8.07987 33.0746 4.28528 28.5087 4.28528 23.6393C4.28528 18.7699 8.07745 14.2 14.9711 10.7882C21.7922 7.40717 30.8579 5.54219 40.4941 5.54219C50.1302 5.54219 59.1943 7.40879 66.0178 10.7882C72.9051 14.1967 76.7005 18.765 76.7005 23.6393C76.7005 28.5136 72.9083 33.0746 66.0178 36.4888C59.1959 39.869 50.131 41.7275 40.4941 41.7275ZM40.4941 6.14194C20.8579 6.14194 4.88234 13.9914 4.88234 23.6393C4.88234 33.2872 20.8579 41.135 40.4941 41.135C60.1303 41.135 76.1058 33.2856 76.1058 23.6393C76.1058 13.993 60.1303 6.14194 40.4941 6.14194Z" fill="white"/>
<path d="M39.0787 15.5009L39.0642 12.8974L40.293 12.6158L40.2705 8.61477L34.232 9.99443L34.2425 11.7482L33.0048 10.2752L30.1445 10.9245L29.1658 12.6872L29.157 11.1509L23.1185 12.5306L23.1387 16.013L23.5792 15.9124L23.601 19.7129L23.4945 19.7373L23.4857 18.1953L20.7206 18.8283L20.7077 16.5697L21.3217 16.4301L21.3007 12.9453L17.4133 13.8331L17.4327 17.3156L17.887 17.2117L17.9087 21.0122L17.7893 21.0398L17.7804 19.4979L15.017 20.1268L15.0073 17.8707L15.6213 17.7303L15.602 14.2487L11.7146 15.1365L11.7243 16.956L10.5414 15.4035L7.59968 16.0755L6.48704 18.0314L6.48139 17.021L4.90239 14.8468L1.45232 15.6348L0 18.1661L0.0451833 26.0245L1.64193 28.1865L4.96048 27.4309L6.41845 24.9394L7.78122 26.7817L10.731 26.1081L11.763 24.2496L11.7727 25.8727L29.2183 21.8871L29.2086 20.1504L30.3374 21.6315L40.3318 19.3477L40.3084 15.2169L39.0787 15.5009ZM34.4926 13.4184L34.6927 13.373L34.7145 17.1735L34.5144 17.219L34.4967 14.1156L34.4926 13.4184ZM28.9004 17.8228L27.9653 18.037L27.9507 15.4327L28.8851 15.2193L28.9004 17.8228ZM12.2068 22.3181L11.9929 22.3668L11.9712 18.5662L12.185 18.5175L12.2068 22.3181ZM3.35325 22.1679L3.36293 23.886L3.19027 23.925L3.16364 19.1862L3.3355 19.1473L3.34357 20.5732L6.36117 19.8834L6.37408 21.4781L3.35325 22.1679ZM80.9839 7.28705L79.3403 7.6628L79.325 4.95461L78.5722 3.89714L79.2782 3.73564L79.2669 1.71727L77.9663 0L74.8881 0.702816L73.6553 2.89567L73.673 5.93173L74.6122 7.22131L73.6819 7.43394L73.6908 8.95319L72.6701 9.18611L72.6661 8.50277L71.9052 8.67726L71.0919 6.15004L71.7665 4.90267L72.6443 4.70221L72.6241 1.22059L66.012 2.73092L66.0314 6.21335L66.4994 6.10622L66.5212 9.90759L66.0532 10.0139L66.0572 10.6972L64.383 11.0795L64.3572 6.59559L64.7848 6.4974L64.7655 3.01578L61.359 3.79407L61.3646 4.87183L60.9886 3.87847L57.9129 4.58129L57.9323 8.06372L58.3995 7.95659L58.4212 11.758L57.9541 11.8643L57.9581 12.5476L56.9245 12.7838L56.8987 8.29907L57.4062 8.18302L57.3869 4.7014L50.895 6.18413L50.9144 9.66656L51.3823 9.56024L51.4081 14.0441L49.9599 14.3745L49.9558 13.6919L49.5823 13.7771L49.5605 9.97577L49.934 9.89055L49.9147 6.40812L43.5027 7.873L43.5228 11.3554L43.99 11.2483L44.0118 15.0497L43.5438 15.156L43.564 18.6092L51.86 16.7142L51.8511 15.2201L52.7862 16.5024L55.6731 15.8434L56.1919 14.8995L56.1968 15.7233L61.4735 14.5181L61.4655 13.0613L61.9988 14.398L74.4896 11.5445L74.4847 10.6364L75.0778 11.4098L78.0994 10.72L78.7537 9.56106L78.7602 10.569L81 10.0569L80.9839 7.28705Z" fill="white"/>
<path d="M5.98929 24.6115L4.61766 26.9553L1.86389 27.5843L0.579397 25.8451L0.535828 18.3089L1.79773 16.108L4.67978 15.4498L5.94895 17.1979L5.96186 19.4232L3.87294 19.8996L3.86487 18.4737L2.62394 18.7569L2.65702 24.6002L3.89795 24.3161L3.88827 22.5989L5.97316 22.1225L5.98929 24.6115ZM11.4662 23.6839L10.3801 25.6382L8.00318 26.1819L6.92443 24.7211L6.88812 18.4096L7.94751 16.5478L10.3277 16.0049L11.4323 17.4592L11.4662 23.6839ZM9.71208 23.4404L9.68223 18.5337L8.63978 18.7723L8.66802 23.6758L9.71208 23.4404ZM17.273 24.0637L12.3037 25.1999L12.2899 22.8464L12.7442 22.7425L12.7168 17.839L12.2641 17.9453L12.2504 15.5658L15.0687 14.9214L15.0824 17.301L14.4684 17.4414L14.4959 22.3448L15.5246 22.1103L15.5157 20.5683L17.252 20.1723L17.273 24.0637ZM22.9766 22.7612L18.0073 23.8974L17.9943 21.5438L18.4486 21.4399L18.4204 16.5365L17.9661 16.6403L17.9524 14.2608L20.7715 13.6164L20.7844 15.9968L20.1712 16.1388L20.1986 21.0415L21.2274 20.8069L21.2185 19.2649L22.9556 18.8681L22.9766 22.7612ZM28.681 21.4578L23.7116 22.594L23.6979 20.2404L24.1385 20.1398L24.111 15.2363L23.6697 15.3386L23.6568 12.9591L28.6253 11.8229L28.6423 14.7218L26.8922 15.1219V14.6025L25.8764 14.8346L25.8837 16.1039L27.4167 15.7525L27.4296 17.9737L25.8966 18.3243L25.9047 19.7381L26.9197 19.506V18.8283L28.6689 18.4282L28.681 21.4578ZM33.9973 20.2429L30.5513 21.0301L29.4499 19.5766L29.4136 13.3511L30.4988 11.3968L32.8096 10.8685L33.9545 12.2319L33.9634 13.7682L32.2134 14.1675V13.3892L31.1709 13.627L31.1992 18.5305L32.2408 18.2919L32.2344 17.1557L31.9116 17.2287L31.8995 15.1227L33.9683 14.6479L33.9973 20.2429ZM39.7945 18.9192L34.8251 20.0554L34.8114 17.7019L35.2528 17.6012L35.2245 12.6978L34.7832 12.7984L34.7703 10.4189L39.7388 9.28268L39.7558 12.1816L38.0025 12.5833V12.0647L36.9867 12.296L36.9939 13.5653L38.5269 13.2147L38.5398 15.4352L37.0068 15.7866L37.0149 17.1995L38.0299 16.9682V16.2906L39.7775 15.8905L39.7945 18.9192ZM49.4387 16.7183L47.0876 17.2547L47.0755 15.0489L47.3022 14.9969L47.2933 13.4971L46.2912 13.726L46.3001 15.2258L46.5421 15.1706L46.555 17.3772L44.0958 17.9356L44.0821 15.5821L44.5492 15.4757L44.521 10.5723L44.0538 10.6818L44.0401 8.30231L46.4978 7.74071L46.5107 9.93194L46.2686 9.98631L46.2767 11.3416L47.2812 11.1184L47.2739 9.76313L47.0464 9.81507L47.0343 7.62384L49.3847 7.08659L49.3984 9.4661L49.0248 9.55212L49.0522 14.4548L49.4266 14.3696L49.4387 16.7183ZM51.3219 16.2849L50.1512 16.5559L50.1415 14.8882L51.3154 14.6179L51.3219 16.2849ZM56.869 7.75451L56.3614 7.87218L56.3929 13.4241L55.3214 15.3719L53.0098 15.8994L51.9456 14.4386L51.9133 8.88664L51.4461 8.99295L51.4324 6.61344L53.853 6.06158L53.8659 8.26823L53.5988 8.32909L53.6279 13.4054L54.6025 13.1823L54.5735 8.10591L54.3201 8.16435L54.3008 5.9577L56.852 5.37499L56.869 7.75451ZM57.9001 14.7827L56.7286 15.0505L56.7213 13.3827L57.8928 13.1149L57.9001 14.7827ZM64.2476 6.06888L63.8215 6.16789L63.8635 13.4217L62.3305 13.7731L60.5393 9.28674L60.3521 9.40036L60.3666 11.9673L60.9314 11.8391L60.9443 14.0888L58.5133 14.6439L58.4996 12.2903L58.9668 12.1832L58.9393 7.27974L58.4722 7.38687L58.4584 5.00736L60.6627 4.50337L62.1957 8.5612L62.3821 8.44596L62.3628 6.33021L61.9093 6.43409L61.8964 4.22014L64.2363 3.68613L64.2476 6.06888ZM65.8257 12.9721L64.6542 13.2391L64.6445 11.5721L65.8161 11.3043L65.8257 12.9721ZM72.1482 11.5242L69.5566 12.1159L69.5437 9.88081L69.985 9.78017L69.4808 8.13351L68.7263 9.51885L68.7159 10.0699L69.0765 9.98875L69.0894 12.2246L66.6043 12.7927L66.5914 10.4392L67.0586 10.332L67.0304 5.42856L66.5648 5.53974L66.5511 3.16023L69.0362 2.59214L69.0483 4.72655L68.7675 4.79067L68.7772 6.47791L69.7454 4.5683L69.5187 4.62024L69.5066 2.48582L72.0982 1.89338L72.1119 4.27289L71.4172 4.4352L70.5167 6.09891L71.5519 9.31433L72.1393 9.17962L72.1482 11.5242ZM73.9523 11.1184L72.7775 11.383L72.7678 9.71525L73.9394 9.44743L73.9523 11.1184ZM78.8095 8.37373L77.7509 10.2476L75.2924 10.8084L74.2298 9.42065L74.221 7.86325L75.9694 7.4664L75.9734 8.30231L77.0159 8.06452L77.0062 6.39189L75.0028 6.84961L74.2072 5.754L74.1919 3.03525L75.2408 1.17514L77.7525 0.601364L78.7361 1.89987L78.7441 3.3055L76.9941 3.7056V3.15699L75.9525 3.39559L75.9589 4.56343L78.0567 4.0846L78.7982 5.12828L78.8095 8.37373ZM80.4627 9.6276L79.2912 9.89542L79.2815 8.22765L80.453 7.96064L80.4627 9.6276Z" fill="#006937"/>
<path d="M41.7865 20.8929C42.1684 20.9828 42.5177 21.1781 42.7951 21.457C42.8341 21.5015 42.8705 21.5484 42.904 21.5974C42.8871 21.6089 42.8671 21.6149 42.8467 21.6144L42.8306 21.6193C42.6297 21.5918 42.4338 21.5355 42.2488 21.4521C42.0874 21.371 41.9261 21.2849 41.7647 21.1916L41.7228 21.1104L41.7865 20.8929ZM38.9004 18.8876C40.0171 18.6831 40.8705 19.0364 41.4605 19.9475C41.552 20.1127 41.6034 20.2973 41.6106 20.4864V20.643C41.6097 20.6959 41.6013 20.7483 41.5856 20.7988C41.5598 20.9043 41.5331 21.0082 41.5049 21.1129L41.4339 21.0861L39.3813 20.2981C39.3867 20.2945 39.3919 20.2904 39.3966 20.2859L39.1392 20.2047L39.132 20.208L39.0021 20.1666L37.7297 19.7746C37.9951 19.2779 38.3897 18.9809 38.8988 18.8868" fill="white"/>
<path d="M37.2973 23.4356C37.2771 23.4202 37.3522 23.3609 37.3417 23.3406C37.4926 23.309 37.4175 23.253 37.5603 23.1621C37.5506 23.1621 37.403 23.1256 37.403 23.1256C37.1012 22.9438 37.2077 23.0834 37.0415 22.8529C37.0167 22.8233 36.9963 22.7902 36.981 22.7547L37.0415 22.5583L37.2747 22.5388L37.2094 22.1265L37.24 21.9642C37.2997 21.892 37.6644 21.7865 37.6079 21.75C37.8234 21.6794 37.8096 21.6566 37.95 21.5154L38.0791 21.1973L37.8145 21.0934L37.6281 21.2752L37.8145 21.194L37.9654 21.2671C37.7378 21.5601 37.4207 21.6266 37.0101 21.4602L36.9229 21.2257C36.9834 21.2087 37.0407 21.1941 37.1085 21.173C37.3059 21.1324 37.4891 21.0402 37.6395 20.9055C37.79 20.7708 37.9024 20.5985 37.9654 20.406L37.9291 20.3476L37.8104 20.0457L41.1645 21.2468L41.2113 21.2679V21.4456L41.2686 21.4716C41.3164 21.4624 41.3632 21.4483 41.4082 21.4294C41.597 21.3699 41.8013 21.385 41.9794 21.4716C41.984 21.4742 41.9889 21.4761 41.9939 21.4773L42.1819 21.7264L41.9125 22.1817L41.8955 22.1866C41.8761 22.1923 41.8544 22.2077 41.8342 22.2134C41.6723 22.288 41.4877 22.2956 41.3202 22.2345C41.3097 22.2345 41.3041 22.2345 41.3001 22.2288C41.2883 22.2269 41.2773 22.2215 41.2686 22.2134L41.1879 22.0819L41.2137 21.7167C41.0007 22.0511 40.8757 22.4796 40.8297 23.0071L40.6376 23.3569L40.181 23.8284L39.7138 24.0719C38.7456 24.3267 36.7995 24.1481 37.2933 23.438M33.936 28.6759C33.9142 28.8006 33.8605 28.9175 33.7803 29.0151C33.6915 29.136 33.3542 29.2091 32.7628 29.2399C32.4628 29.2678 32.1606 29.2188 31.8845 29.0974C31.6084 28.9761 31.3673 28.7864 31.1838 28.546C30.4878 27.7301 30.1 26.9637 30.0204 26.2469C29.9397 25.5262 29.4975 23.6052 29.383 22.9259L28.8892 22.3416V22.0016C29.7375 21.8599 30.5647 21.6118 31.3517 21.263C31.5937 21.2273 31.6518 21.3101 31.513 21.5349C31.3515 21.6619 31.1834 21.7803 31.0095 21.8896C30.9934 21.9058 30.9773 21.9212 30.9628 21.9374C30.8958 22.0162 30.813 22.0797 30.7198 22.1238C30.6266 22.1678 30.5251 22.1915 30.4222 22.1931C30.4117 22.2239 30.3963 22.2556 30.381 22.2921C30.3472 22.3699 30.3015 22.442 30.2455 22.5055C30.245 22.5097 30.2433 22.5137 30.2406 22.5169C30.2194 22.5492 30.192 22.5768 30.1599 22.5981C30.134 22.6253 30.1041 22.6482 30.0712 22.6662L30.1172 22.7709C31.0943 23.6904 32.0221 25.9409 32.1988 27.0722V28.3099C32.2537 28.0294 32.3232 27.752 32.407 27.4788C32.474 27.323 32.4877 27.073 32.4433 26.7379C32.5747 26.7073 32.7032 26.6652 32.8274 26.6121C33.0138 26.5398 33.2994 26.5236 33.6786 26.5658V26.8166L33.9384 28.6751L33.936 28.6759Z" fill="#DAB38D"/>
<path d="M45.3489 24.4281C45.0525 23.9587 44.8054 23.4596 44.6114 22.9389C44.5864 22.8653 44.5559 22.7937 44.5202 22.7247C44.6224 23.342 44.8072 23.9427 45.0697 24.5101C45.0891 24.5572 45.11 24.6043 45.1318 24.6465C44.6897 24.8493 44.3064 25.2105 43.9732 25.7283V24.6278C43.5117 26.3321 42.8993 27.2662 42.1465 27.422C41.3937 27.5778 40.9362 27.6785 40.7853 27.7199C41.9545 27.9033 42.7847 27.6833 43.2866 27.0706C43.2059 27.4877 42.7314 28.1987 41.8439 29.1807C40.9564 30.1627 40.1253 30.747 39.3427 30.9304C38.5601 31.1138 37.4676 31.04 36.0968 30.7162C35.9973 30.6915 35.9014 30.6544 35.8111 30.6058C36.5857 30.0837 36.9856 29.3598 37.0109 28.434L36.6269 27.9739C36.1073 28.5128 35.469 28.7311 34.705 28.6166L34.2539 26.9399C34.2647 27.4772 34.301 28.0415 34.3629 28.6329L34.2588 28.7473C34.0024 28.0857 33.8922 27.3759 33.936 26.6673C33.936 26.6421 33.9102 26.4855 33.8553 26.1982C34.2071 25.639 34.7743 25.3103 35.5626 25.2154V26.1982C35.6296 24.9475 36.2275 24.3559 37.3571 24.4281C38.0477 24.9248 38.6085 25.1439 39.0514 25.1017C39.1765 25.0855 39.2806 25.0806 39.3742 25.075C39.2701 25.0652 39.1458 25.0555 39.0062 25.0392C38.5333 25.0032 38.0837 24.8177 37.7217 24.5093L37.6411 24.3161C37.6564 24.3113 37.6661 24.3056 37.6822 24.3015C37.7399 24.277 37.8046 24.2746 37.864 24.2946C37.9234 24.3146 37.9735 24.3557 38.005 24.4103C38.0795 24.4906 38.1657 24.559 38.2607 24.6132C38.5386 24.7481 38.855 24.7797 39.1539 24.7025C40.1294 24.4517 40.8668 23.8568 41.3509 22.9113C41.3396 22.9738 41.3243 23.0314 41.3138 23.0947C41.3033 23.1361 41.2937 23.1759 41.2824 23.2189L41.1065 23.7196L40.8305 24.1652C40.8257 24.1749 40.7942 24.2691 40.7377 24.4411C40.8961 24.266 41.0435 24.0812 41.1791 23.8876C41.3926 23.584 41.5718 23.2574 41.7132 22.9138C41.8766 22.7891 42.0722 22.7145 42.2767 22.6986C42.4811 22.6828 42.6858 22.7265 42.8662 22.8245L42.8363 23.2846C43.301 22.5161 43.9279 21.8598 44.6727 21.362C44.7892 22.378 45.0498 23.372 45.4465 24.3137L45.3489 24.4281Z" fill="#006937"/>
<path d="M50.9418 17.2206C50.6247 17.779 50.0155 19.7787 49.4653 20.781C48.915 21.7833 48.1485 22.5916 46.8245 22.8561C46.8866 22.5542 46.9326 22.34 46.9584 22.2069C47.0108 21.9589 47.0108 21.7026 46.9584 21.4546C46.7309 22.8026 46.3057 23.7529 45.6973 24.3024L44.9139 21.3288C45.5277 21.0611 46.2031 20.9693 46.8656 21.0634C46.7632 20.9604 46.6336 20.8891 46.492 20.8581C46.3888 20.8378 46.2952 20.8224 46.2113 20.8013C46.2503 20.7237 46.3123 20.6601 46.3888 20.6195C47.5087 19.9459 48.6826 17.9235 49.9034 17.327L50.0809 16.9358C50.0696 16.9252 50.0648 16.9155 50.0543 16.9098C49.9128 16.8146 49.7671 16.7258 49.6178 16.6436C49.4744 16.5656 49.3516 16.4543 49.2595 16.319C49.3402 16.1567 49.462 16.1413 49.6291 16.2679C50.2463 16.7118 51.0297 16.836 51.9915 16.6485C51.673 16.8926 51.3193 17.0864 50.9426 17.2231M29.6427 22.9422H29.9751L30.3221 24.7276L29.6427 22.9422Z" fill="#DAB38D"/>
<path d="M29.9751 22.9422H29.6427L30.3221 24.7276L29.9751 22.9422Z" fill="#231F20"/>
<path d="M41.3728 21.9796V21.7183C41.5342 21.5308 41.7456 21.5308 42.0005 21.7183C41.777 21.6664 41.564 21.7492 41.3728 21.9796Z" fill="#DAB38D"/>
<path d="M41.3727 21.7183V21.9796C41.5639 21.7492 41.7761 21.6664 42.0004 21.7183C41.7455 21.5308 41.5333 21.5308 41.3727 21.7183ZM40.4376 21.6088C40.4376 21.6088 40.4376 22.2418 39.8082 22.3684C39.8082 22.3684 40.5223 22.2872 40.4376 21.6088Z" fill="#231F20"/>
<path d="M38.6043 24.4874C38.5107 24.4777 38.4243 24.4327 38.3622 24.3616C39.1885 24.4087 39.8146 24.2723 40.2365 23.9388C40.2418 23.9348 40.2479 23.9321 40.2543 23.931C40.2608 23.9299 40.2674 23.9303 40.2737 23.9323C40.2633 23.9436 40.2544 23.9561 40.247 23.9696C40.2309 23.9858 40.2164 24.0069 40.2019 24.0215C40.0015 24.2539 39.7395 24.4241 39.4466 24.5125C39.2449 24.5937 38.9545 24.5864 38.5648 24.4874C38.6688 24.5077 38.6785 24.5077 38.6011 24.4874" fill="#DAB38D"/>
<path d="M50.423 16.4261C50.2452 16.2681 50.0346 16.152 49.8065 16.0861C49.5785 16.0203 49.3387 16.0064 49.1046 16.0455C48.932 16.181 48.8965 16.3165 49.0054 16.4472C49.1905 16.691 49.4359 16.8818 49.717 17.0007C49.5613 17.2523 49.5153 17.5939 49.241 17.6816C48.0162 18.0874 46.7938 19.9369 45.937 20.7988L44.78 20.9554C44.0893 21.2379 43.5293 21.7492 43.1033 22.5015C42.721 22.3692 42.3106 22.3412 41.914 22.4203C42.1517 22.2841 42.3406 22.0759 42.4538 21.8254C42.4878 21.8368 42.5226 21.8454 42.5579 21.8514C42.6529 21.8771 42.7522 21.8826 42.8495 21.8675C42.9467 21.8524 43.0398 21.8171 43.1227 21.7638C43.0081 21.1096 42.5724 20.6819 41.8083 20.4928C41.7532 20.0894 41.5563 19.7192 41.2532 19.4492C39.9163 18.2399 38.6875 18.2537 37.574 19.5035C37.56 19.5304 37.5507 19.5595 37.5466 19.5896C37.5409 19.6269 37.5304 19.6642 37.5272 19.7024C37.524 19.7405 37.5377 19.7779 37.5345 19.816V19.8249C37.6491 20.0499 37.7101 20.2985 37.7128 20.5513L37.5038 20.7761L36.8027 21.0196C36.803 21.0225 36.8027 21.0255 36.8017 21.0283C36.8007 21.0311 36.7991 21.0337 36.797 21.0358C36.7123 21.2509 36.8583 21.5073 36.9382 21.737C36.9423 21.7483 37.4764 21.7329 37.4772 21.7435C37.482 21.7865 37.2489 21.7946 37.1988 21.8409C37.1238 21.9163 37.048 22.0348 37.073 22.0957L37.1658 22.2734L36.8769 22.4439C36.8559 22.4958 36.8543 22.68 36.8285 22.8423C36.9273 22.9672 37.0528 23.0681 37.1956 23.1377C36.8906 23.7959 37.0633 23.9168 37.3699 24.0694C37.0278 23.9956 36.6639 24.0694 36.2693 24.2934C35.8748 24.5174 35.6303 24.7219 35.5271 24.9362C34.8162 25.0409 34.3119 25.2235 34.0158 25.4897C33.7197 25.7559 33.5277 25.9498 33.4397 26.091V26.2217C32.9823 26.1795 32.6394 26.2468 32.4263 26.4189C32.0842 25.4223 31.1661 23.3707 30.356 22.7125C30.4148 22.6871 30.4651 22.6455 30.5012 22.5924C30.5494 22.5259 30.5734 22.4448 30.569 22.3627C30.6109 22.3465 30.6497 22.3254 30.694 22.3099C30.9696 22.2201 31.2047 22.0353 31.3581 21.7881L31.6227 21.5941C31.8148 21.3336 31.7784 21.1819 31.5291 21.1242C30.7193 21.2125 29.9218 21.3914 29.1514 21.6574C29.1474 21.6578 29.1437 21.6596 29.1409 21.6623C29.1381 21.6619 29.1353 21.6621 29.1327 21.663C29.13 21.6638 29.1276 21.6653 29.1255 21.6672L28.6939 21.8668L28.6067 22.0592V22.3026C28.5906 22.3343 28.6785 22.4804 28.8657 22.7514C29.0529 23.0225 29.2216 23.7407 29.3692 24.9151C29.5169 26.0894 30.3173 28.2425 31.0975 28.9307C31.8777 29.6189 32.8677 29.7512 34.0828 29.317C35.0089 29.2839 35.9113 29.0141 36.705 28.533C36.68 29.3949 36.2064 30.0961 35.2769 30.6326L36.2169 31.0383C37.6007 31.4294 39.066 31.4202 40.4448 31.0116C40.9216 30.8663 41.083 30.51 41.6849 29.9362C42.4326 29.2215 43.0974 28.2601 43.6794 27.0519C44.266 25.8467 44.8372 25.1569 45.4085 24.9841C45.9797 24.8112 46.442 24.248 46.7954 23.2798C47.6773 23.2384 48.3244 22.6614 49.0877 21.8928C49.851 21.1242 50.6207 18.8437 51.0427 17.4868C51.0742 17.4754 51.104 17.4714 51.1371 17.4608C51.6502 17.3034 52.0658 16.9642 52.3941 16.4464C51.5913 16.4472 50.9378 16.4472 50.423 16.4261ZM41.7898 20.8897C42.1717 20.9795 42.521 21.1749 42.7983 21.4537C42.8374 21.4983 42.8738 21.5452 42.9073 21.5941C42.8904 21.6057 42.8704 21.6117 42.85 21.6112L42.8338 21.6161C42.633 21.5885 42.4371 21.5322 42.2521 21.4489C42.0907 21.3677 41.9294 21.2817 41.768 21.1884L41.726 21.1072L41.7898 20.8897ZM38.9037 18.8843C40.0204 18.6798 40.8737 19.0331 41.4638 19.9442C41.5553 20.1095 41.6067 20.2941 41.6139 20.4831V20.6397C41.613 20.6926 41.6046 20.7451 41.5889 20.7956C41.5631 20.9011 41.5364 21.0049 41.5082 21.1096L41.4372 21.0829L39.3846 20.2948C39.39 20.2912 39.3952 20.2872 39.3999 20.2827L39.1425 20.2015L39.132 20.208L39.0021 20.1666L37.7297 19.7746C37.9968 19.2787 38.3914 18.9817 38.9005 18.8876L38.9037 18.8843ZM37.3005 23.4291C37.2803 23.4137 37.3554 23.3544 37.3449 23.3341C37.4958 23.3025 37.4207 23.2465 37.5635 23.1556C37.5538 23.1556 37.4062 23.1191 37.4062 23.1191C37.1044 22.9373 37.2109 23.0769 37.0447 22.8464C37.0199 22.8168 36.9995 22.7837 36.9842 22.7482L37.0447 22.5518L37.1658 22.5421L37.1593 22.6005L37.3102 22.7336V22.7287L38.2631 23.158L38.7246 23.201L38.7359 23.1937L38.8448 23.1678L38.9255 23.1288L39.0126 23.0899L39.128 22.8894L39.2644 22.6792C39.2644 22.6792 39.2724 22.482 39.2732 22.4796C39.2926 22.3773 39.4306 22.387 39.3822 22.086L39.1094 22.0949C39.0288 22.0072 38.777 22.1436 38.5551 22.1135C37.8742 22.0194 38.0388 22.1687 37.4215 22.09C37.2602 22.1006 37.2351 22.0405 37.2351 22.0024L37.2432 21.9593C37.3029 21.8871 37.6676 21.7816 37.6111 21.7451C37.8266 21.6745 37.8128 21.6518 37.9532 21.5106L38.0823 21.1924L37.8177 21.0885L37.6313 21.2703L37.8177 21.1892L37.9686 21.2622C37.741 21.5552 37.4239 21.6217 37.0133 21.4554L36.9261 21.2208C36.9866 21.2038 37.0439 21.1892 37.1117 21.1681C37.3091 21.1276 37.4923 21.0353 37.6427 20.9006C37.7932 20.7659 37.9056 20.5936 37.9686 20.4011L37.9323 20.3427L37.8104 20.0457L41.1645 21.2468L41.2113 21.2679V21.4456L41.2686 21.4716C41.3164 21.4624 41.3632 21.4483 41.4081 21.4294C41.597 21.3699 41.8012 21.385 41.9794 21.4716C41.9839 21.4742 41.9888 21.4761 41.9939 21.4773L42.1819 21.7264L41.9124 22.1817L41.8955 22.1866C41.8761 22.1923 41.8543 22.2077 41.8342 22.2134C41.6722 22.288 41.4876 22.2956 41.3202 22.2345C41.3097 22.2345 41.3041 22.2345 41.3 22.2288C41.2883 22.2269 41.2773 22.2215 41.2686 22.2134L41.1879 22.0819L41.2137 21.7167C41.0007 22.0511 40.8756 22.4796 40.8296 23.0071L40.6376 23.3569L40.1809 23.8284L39.7138 24.0719C38.7504 24.3242 36.8011 24.1457 37.2973 23.4356L37.3005 23.4291ZM38.6076 24.4841C38.514 24.4744 38.4275 24.4295 38.3655 24.3583C39.1917 24.4054 39.8179 24.2691 40.2398 23.9355C40.2451 23.9315 40.2512 23.9289 40.2576 23.9277C40.2641 23.9266 40.2707 23.927 40.2769 23.929C40.2666 23.9403 40.2577 23.9529 40.2503 23.9663C40.2342 23.9826 40.2197 24.0037 40.2051 24.0183C40.0047 24.2506 39.7428 24.4209 39.4499 24.5093C39.2482 24.5904 38.9578 24.5831 38.568 24.4841C38.6721 24.5093 38.6818 24.5093 38.6044 24.4874L38.6076 24.4841ZM33.936 28.6759C33.9142 28.8006 33.8605 28.9175 33.7802 29.0151C33.6915 29.136 33.3542 29.2091 32.7628 29.2399C32.4628 29.2678 32.1606 29.2188 31.8845 29.0974C31.6084 28.9761 31.3673 28.7864 31.1838 28.546C30.4878 27.7301 30.0999 26.9637 30.0203 26.2468C29.9396 25.5262 29.4975 23.6052 29.3829 22.9259L28.8891 22.3416V22.0015C29.7374 21.8599 30.5647 21.6118 31.3516 21.263C31.5937 21.2273 31.6518 21.3101 31.513 21.5349C31.3514 21.6619 31.1834 21.7803 31.0095 21.8896C30.9934 21.9058 30.9772 21.9212 30.9627 21.9374C30.8958 22.0162 30.813 22.0797 30.7198 22.1238C30.6266 22.1678 30.5251 22.1915 30.4221 22.1931C30.4116 22.2239 30.3963 22.2556 30.381 22.2921C30.3472 22.3699 30.3014 22.442 30.2454 22.5055C30.245 22.5097 30.2433 22.5137 30.2406 22.5169C30.2194 22.5491 30.192 22.5767 30.1599 22.5981C30.134 22.6252 30.1041 22.6482 30.0712 22.6662L30.1172 22.7709C31.0942 23.6904 32.0221 25.9409 32.1988 27.0722V28.3098C32.2537 28.0294 32.3232 27.752 32.407 27.4788C32.4739 27.323 32.4877 27.073 32.4433 26.7378C32.5747 26.7072 32.7032 26.6652 32.8273 26.6121C33.0137 26.5398 33.2994 26.5236 33.6786 26.5658V26.8166L33.9384 28.6751L33.936 28.6759ZM45.3488 24.4281C45.0527 23.9585 44.8056 23.4595 44.6113 22.9389C44.5863 22.8653 44.5559 22.7937 44.5201 22.7247C44.6223 23.342 44.8071 23.9426 45.0696 24.5101C45.089 24.5572 45.1099 24.6042 45.1317 24.6464C44.6896 24.8493 44.3063 25.2105 43.9731 25.7283V24.6278C43.5116 26.3321 42.8992 27.2662 42.1464 27.422C41.3936 27.5778 40.9361 27.6785 40.7853 27.7198C41.9544 27.9033 42.7846 27.6833 43.2865 27.0706C43.2058 27.4877 42.7314 28.1987 41.8438 29.1807C40.9563 30.1627 40.1253 30.747 39.3426 30.9304C38.56 31.1138 37.4675 31.04 36.0967 30.7161C35.9973 30.6915 35.9013 30.6544 35.8111 30.6058C36.5856 30.0837 36.9856 29.3597 37.0108 28.434L36.6268 27.9739C36.1072 28.5127 35.469 28.7311 34.7049 28.6166L34.2538 26.9399C34.2646 27.4772 34.3009 28.0415 34.3628 28.6329L34.2587 28.7473C34.0023 28.0857 33.8922 27.3759 33.936 26.6672C33.936 26.6421 33.9101 26.4854 33.8553 26.1982C34.2071 25.639 34.7743 25.3103 35.5626 25.2154V26.1982C35.6295 24.9475 36.2274 24.3559 37.357 24.4281C38.0476 24.9248 38.6084 25.1439 39.0513 25.1017C39.1764 25.0855 39.2805 25.0806 39.3741 25.0749C39.27 25.0652 39.1458 25.0555 39.0062 25.0392C38.5332 25.0032 38.0836 24.8177 37.7217 24.5093L37.641 24.3161C37.6563 24.3113 37.666 24.3056 37.6821 24.3015C37.7399 24.277 37.8045 24.2746 37.8639 24.2946C37.9233 24.3146 37.9735 24.3557 38.0049 24.4103C38.0794 24.4906 38.1656 24.559 38.2606 24.6132C38.5385 24.7481 38.855 24.7797 39.1538 24.7024C40.1293 24.4517 40.8668 23.8568 41.3509 22.9113C41.3396 22.9738 41.3242 23.0314 41.3137 23.0947C41.3033 23.1361 41.2936 23.1759 41.2823 23.2189L41.1064 23.7196L40.8304 24.1652C40.8256 24.1749 40.7941 24.2691 40.7377 24.4411C40.8961 24.266 41.0435 24.0812 41.179 23.8876C41.3925 23.584 41.5717 23.2574 41.7131 22.9137C41.8765 22.7891 42.0721 22.7145 42.2766 22.6986C42.481 22.6828 42.6857 22.7265 42.8661 22.8245L42.8363 23.2846C43.3009 22.5161 43.9278 21.8598 44.6726 21.362C44.7892 22.378 45.0497 23.372 45.4464 24.3137L45.3488 24.4281ZM50.9418 17.219C50.6247 17.7773 50.0156 19.777 49.4653 20.7793C48.915 21.7816 48.1485 22.5899 46.8245 22.8545C46.8866 22.5526 46.9326 22.3383 46.9584 22.2053C47.0109 21.9573 47.0109 21.7009 46.9584 21.4529C46.7309 22.8009 46.3057 23.7513 45.6973 24.3007L44.9139 21.3271C45.5277 21.0595 46.2032 20.9676 46.8656 21.0618C46.7632 20.9587 46.6336 20.8875 46.4921 20.8564C46.3888 20.8361 46.2952 20.8207 46.2113 20.7996C46.2503 20.722 46.3124 20.6585 46.3888 20.6178C47.5087 19.9442 48.6827 17.9218 49.9034 17.3253L50.0809 16.9341C50.0696 16.9236 50.0648 16.9138 50.0543 16.9082C49.9128 16.813 49.7671 16.7242 49.6178 16.642C49.4744 16.564 49.3516 16.4527 49.2596 16.3173C49.3402 16.155 49.4621 16.1396 49.6291 16.2662C50.2463 16.7101 51.0298 16.8343 51.9915 16.6468C51.6727 16.8908 51.3187 17.0843 50.9418 17.2206V17.219Z" fill="#231F20"/>
<path d="M37.3892 22.232C37.409 22.2337 37.4287 22.2367 37.4481 22.241H37.5111C37.5554 22.2515 37.5998 22.258 37.645 22.2661C37.6902 22.2742 37.7362 22.2978 37.787 22.3043C37.8378 22.3107 37.8548 22.284 37.9056 22.2905C38.0412 22.3059 38.1396 22.2629 38.2509 22.2718C38.3042 22.2718 38.3905 22.2653 38.4414 22.2718C38.589 22.2888 38.852 22.2231 38.9957 22.2621C39.0763 22.284 39.136 22.2263 39.2127 22.2442C39.1771 22.3864 39.1256 22.5242 39.0594 22.6549C39.0118 22.7109 38.9279 22.6816 38.869 22.6751C38.7213 22.6589 38.5737 22.6914 38.4252 22.6751C38.2768 22.6589 38.1025 22.6273 37.9468 22.6191C37.8782 22.6139 37.8103 22.6017 37.7442 22.5826C37.6799 22.5726 37.6175 22.5523 37.5595 22.5226C37.5339 22.5036 37.5069 22.4865 37.4788 22.4714C37.4472 22.461 37.4174 22.4453 37.3908 22.4252C37.3489 22.3781 37.3908 22.2791 37.3908 22.2231C37.3852 22.2231 37.3836 22.2231 37.3844 22.2312" fill="white"/>
<path d="M38.9117 20.8791L38.823 20.7907L38.6422 20.9108L38.6729 21.0358H38.9117V20.8791ZM38.5454 20.32C38.6911 20.3057 38.8377 20.3371 38.965 20.4101C39.0634 20.4855 39.1263 20.5294 39.1457 20.5472L39.2861 20.6787L39.4838 20.8572V20.8629L39.8589 21.0699C39.7532 21.0807 39.6466 21.0601 39.5523 21.0106C39.4789 20.9749 39.4055 20.9295 39.3345 20.8913H39.3409C39.2861 20.854 39.2119 20.798 39.1699 20.7647L39.1465 20.7428L39.1408 20.7387C38.845 20.4612 38.6454 20.3681 38.5422 20.4596C38.5121 20.4747 38.4866 20.4978 38.4686 20.5264C38.4505 20.555 38.4405 20.588 38.4397 20.6219C38.4364 20.6165 38.4345 20.6103 38.4341 20.604C38.4216 20.5516 38.4254 20.4967 38.4449 20.4465C38.4643 20.3963 38.4986 20.3533 38.543 20.3232" fill="#231F20"/>
<path d="M37.3893 22.4739C37.3998 22.5307 37.4619 22.5664 37.5151 22.5834C37.5684 22.6005 37.6281 22.6175 37.6854 22.6402C37.7897 22.6689 37.8956 22.6917 38.0025 22.7084C38.0778 22.7271 38.154 22.7417 38.2308 22.7522C38.2921 22.7587 38.4067 22.7823 38.4688 22.7855C38.531 22.7888 38.602 22.8017 38.6641 22.8066C38.7178 22.811 38.7718 22.811 38.8255 22.8066C38.9513 22.7977 38.819 22.8285 38.9441 22.8066C38.8892 22.8602 38.9441 22.8399 38.8763 22.878C38.8085 22.9162 38.8456 22.9592 38.7827 22.9957C38.6689 23.0631 38.5019 23.0128 38.3793 23.016C38.2354 23.015 38.0935 22.982 37.9637 22.9194C37.9089 22.8943 37.8677 22.8553 37.8145 22.8261C37.7612 22.7969 37.7072 22.7742 37.6531 22.7449C37.5973 22.7108 37.5394 22.6805 37.4796 22.654C37.4293 22.6386 37.3859 22.6058 37.357 22.5615C37.3836 22.5567 37.3981 22.5201 37.407 22.4982" fill="white"/>
<path d="M36.379 27.3903C36.488 27.5484 36.5885 27.7123 36.6799 27.8813C36.784 28.0639 37.0833 28.1946 37.5892 28.2741L37.6522 28.2839C37.8997 28.3347 38.1549 28.3345 38.4023 28.2831C38.6498 28.2318 38.8843 28.1304 39.0916 27.9852C38.338 28.1792 37.6393 28.1378 36.9865 27.8497C36.7742 27.7102 36.5712 27.5567 36.379 27.3903ZM75.4101 35.0848C75.9692 35.0848 76.413 35.5011 76.413 36.0254C76.413 36.5497 75.9692 36.9709 75.4053 36.9709C74.8413 36.9709 74.3911 36.5578 74.3911 36.0254C74.3911 35.493 74.8477 35.0848 75.4053 35.0848H75.4101ZM75.4053 35.2309C75.1883 35.2315 74.9804 35.3188 74.8273 35.4734C74.6742 35.6281 74.5884 35.8376 74.5887 36.0558C74.5891 36.2741 74.6755 36.4833 74.829 36.6375C74.9826 36.7917 75.1907 36.8783 75.4077 36.8783C75.6247 36.8783 75.8328 36.7917 75.9863 36.6375C76.1399 36.4833 76.2263 36.2741 76.2266 36.0558C76.227 35.8376 76.1411 35.6281 75.9881 35.4734C75.835 35.3188 75.6271 35.2315 75.4101 35.2309H75.4053ZM75.2149 36.5748H75.0365V35.5198C75.1435 35.5045 75.2513 35.4961 75.3593 35.4946C75.483 35.4859 75.6065 35.5141 75.7143 35.5758C75.7488 35.5997 75.7766 35.6323 75.7948 35.6703C75.8131 35.7083 75.8212 35.7504 75.8184 35.7925C75.8162 35.8547 75.7927 35.9143 75.7518 35.961C75.7109 36.0078 75.6552 36.0388 75.5941 36.0489V36.0554C75.6957 36.0725 75.7643 36.1561 75.7869 36.3111C75.7965 36.4012 75.8204 36.4892 75.8579 36.5716H75.6683C75.6243 36.4876 75.5969 36.3958 75.5876 36.3013C75.561 36.1682 75.4876 36.1179 75.3456 36.1179H75.2189L75.2149 36.5748ZM75.2149 35.9929H75.3464C75.4972 35.9929 75.6231 35.9426 75.6231 35.8103C75.6231 35.7194 75.5497 35.6285 75.3464 35.6285C75.3024 35.6278 75.2584 35.6305 75.2149 35.6367V35.9929Z" fill="#231F20"/>
<path d="M12.8071 33.9665H12.8749V32.25H10.3801V33.9665H10.4237L9.84356 35.9467H9.64426V35.674H9.38365V33.0462H9.64426V31.057H5.23163V33.0462H5.49305V35.674H5.23163V37.6648H11.5315V36.3663H11.6824V37.6648H13.6761V35.9467H13.3856L12.8071 33.9665ZM7.34234 33.0462H7.54647V33.2133H7.34234V33.0462ZM7.54647 35.674H7.34234V35.3396H7.54647V35.674Z" fill="white"/>
<path d="M26.5702 32.25L25.94 33.1119V32.25H23.9229V32.7418L23.7067 32.25H20.113V33.9665H20.3195V35.9467H20.2792V35.6537H18.864V33.9665H19.0705V32.25H13.5033V33.9665H13.7163V36.6828L14.4368 37.6672H16.2982L17.0147 36.6828V33.9665H17.2616V35.9467H17.055V37.6648H24.0568V37.2087L24.2585 37.6648H25.94V36.8013L26.5702 37.6648H28.4259L29.1448 36.6779V33.2296L28.4251 32.25H26.5702ZM15.3147 33.9665H15.4107V35.9467H15.313L15.3147 33.9665ZM27.4537 34.356V33.9665H27.5432V34.356H27.4537ZM22.2479 35.9467H21.9211V33.9665H22.2479V35.9467ZM25.7335 33.9665H25.8513V35.9467H25.7335V33.9665ZM45.8465 33.9665V32.25H40.0437V32.7426L39.8274 32.25H34.7007V31.057H32.2261V33.0462H32.5965V34.6238H30.8093V36.4986L31.6638 37.6648H33.5857L34.4393 36.488V33.0462H34.6136V33.9665H34.8218V36.6828L35.5415 37.6672H37.4029L38.1193 36.6828V33.9665H38.3678V35.9467H38.1637V37.6648H40.1808V37.2111L40.3809 37.6648H45.8497V35.9467H45.4253L44.6895 34.9387L45.3987 33.9648L45.8465 33.9665ZM36.4209 33.9665H36.5177V35.9467H36.4209V33.9665ZM42.1786 35.9467H41.8558V33.9665H42.1786V35.9467Z" fill="white"/>
<path d="M7.86513 35.9986V35.015H7.01552V35.9986H7.27694V37.3402H5.55432V35.9986H5.81574V32.7215H5.55432V31.3816H7.27694V32.7215H7.01552V33.538H7.86513V32.7215H7.60532V31.3816H9.32229V32.7215H9.06168V35.9986H9.32229V37.3402H7.60532V35.9986H7.86513ZM12.5521 32.5746V33.6418H12.3762L13.1443 36.2713H13.3533V37.3402H12.005V36.2713H12.1269L12.0752 36.0408H11.1514L11.0941 36.2713H11.2087V37.3402H9.8774V36.2713H10.0856L10.8537 33.6418H10.702V32.5746H12.5521ZM11.3854 35.1303H11.8364L11.6105 34.3869L11.3854 35.1303ZM16.692 36.5732L16.1313 37.3402H14.5958L14.0351 36.5732V33.6427H13.8293V32.5746H15.1994V33.6427H14.992V36.1147L15.1082 36.2713H15.6181L15.7343 36.1147V33.6427H15.5205V32.5746H16.8986V33.6427H16.692V36.5732ZM18.5413 33.6427V36.2713H19.1771V35.9783H19.9565V37.3402H17.3778V36.2713H17.5844V33.6427H17.3778V32.5746H18.7479V33.6427H18.5413ZM21.8058 37.3402H20.4358V36.2713H20.6423V33.6427H20.4358V32.5746H21.8058V33.6427H21.5984V36.2713H21.8058V37.3402ZM24.4684 37.3402L23.5276 35.213V36.2713H23.7342V37.3402H22.3641V36.2713H22.5707V33.6427H22.3641V32.5746H23.4986L24.4547 34.7521V33.6427H24.2473V32.5746H25.6173V33.6427H25.4108V36.2713H25.6173V37.3402H24.4684ZM28.8229 34.6798V36.5716L28.2638 37.3402H26.7332L26.1741 36.574V33.3391L26.7332 32.5746H28.2638L28.8229 33.3367V34.3934H27.866V33.8009L27.7563 33.6427H27.2464L27.131 33.8009V36.1147L27.2464 36.2713H27.7514L27.866 36.1123V35.6651H27.5989V34.6798H28.8229ZM34.1166 32.7215V36.3825L33.422 37.3402H31.8268L31.1321 36.3922V34.9485H32.3287V35.8063L32.4699 35.9986H32.7773L32.9185 35.8136V32.7215H32.5489V31.3816H34.3781V32.7215H34.1166ZM37.7967 36.5732L37.2367 37.3402H35.7021L35.1421 36.5732V33.6427H34.934V32.5746H36.3056V33.6427H36.0983V36.1147L36.2144 36.2713H36.7252L36.8406 36.1147V33.6427H36.6259V32.5746H38.004V33.6427H37.7967V36.5732ZM40.5875 37.3402L39.6476 35.213V36.2713H39.8549V37.3402H38.4849V36.2713H38.6907V33.6427H38.4849V32.5746H39.6177L40.573 34.7521V33.6427H40.3665V32.5746H41.7373V33.6427H41.5307V36.2713H41.7373V37.3402H40.5875ZM43.4575 36.2713H43.6649V37.3402H42.2948V36.2713H42.5014V33.6427H42.2948V32.5746H43.6649V33.6427H43.4575V34.3228L43.9561 33.6427H43.8633V32.5746H45.5238V33.6427H45.2374L44.2918 34.9387L45.264 36.2713H45.5238V37.3402H43.8633V36.2713H43.9618L43.6261 35.8104L43.4575 36.0343V36.2713ZM49.9695 36.9538C49.8244 37.1187 49.6447 37.2493 49.4435 37.3361C49.2112 37.4373 48.96 37.4874 48.7068 37.483C48.1512 37.483 47.7166 37.331 47.403 37.0269C47.0894 36.7228 46.9328 36.2802 46.9334 35.6992C46.9244 35.3566 47.0174 35.0192 47.2005 34.7302C47.3622 34.4735 47.5922 34.2677 47.8645 34.1361C47.7438 33.9916 47.6431 33.8314 47.5651 33.6597C47.4807 33.4659 47.4392 33.256 47.4433 33.0445C47.44 32.813 47.4827 32.5831 47.5692 32.3685C47.6465 32.1764 47.7653 32.004 47.9169 31.8637C48.0702 31.7252 48.2493 31.6188 48.4438 31.5504C48.6581 31.4747 48.8839 31.4373 49.1111 31.4401C49.3282 31.4376 49.5443 31.4708 49.7509 31.5383C49.9374 31.5988 50.1096 31.6971 50.2568 31.8272C50.4022 31.9572 50.516 32.119 50.5892 32.3003C50.671 32.5104 50.7108 32.7346 50.7062 32.9601C50.7067 33.1259 50.6794 33.2905 50.6255 33.4471C50.5763 33.5888 50.5082 33.7231 50.423 33.8464C50.3394 33.9652 50.24 34.0719 50.1277 34.1637C50.0175 34.2532 49.901 34.3346 49.7791 34.4072L50.0712 34.8064L50.3705 34.2197H51.9608L50.9482 35.8728L52.0657 37.3629H50.2665L49.9695 36.9538ZM48.6253 35.1619C48.5668 35.2015 48.5217 35.2581 48.4962 35.3242C48.4567 35.4138 48.4374 35.5111 48.4398 35.6091C48.435 35.7348 48.4703 35.8588 48.5406 35.9629C48.5738 36.0099 48.6183 36.0477 48.67 36.0726C48.7216 36.0976 48.7787 36.109 48.8359 36.1058C48.9123 36.1094 48.9881 36.0911 49.0546 36.053C49.1091 36.0172 49.1538 35.968 49.1845 35.9102L48.6253 35.1619ZM49.128 32.629C49.086 32.6272 49.0443 32.6374 49.0078 32.6583C48.9712 32.6793 48.9413 32.7102 48.9214 32.7475C48.8735 32.8331 48.8496 32.9301 48.8521 33.0283C48.8502 33.2242 48.9226 33.4134 49.0546 33.5574C49.15 33.5052 49.2308 33.4295 49.2894 33.3375C49.3487 33.2464 49.3798 33.1396 49.3789 33.0307C49.3824 32.9321 49.3613 32.8342 49.3176 32.7459C49.301 32.7098 49.2741 32.6794 49.2403 32.6587C49.2066 32.6379 49.1675 32.6276 49.128 32.629Z" fill="#006937"/>
<path d="M48.7069 37.6283C48.1147 37.6283 47.6418 37.4611 47.303 37.1316C46.9641 36.8021 46.789 36.32 46.789 35.6992C46.781 35.3294 46.8824 34.9656 47.0803 34.6539C47.2247 34.427 47.4176 34.2354 47.6451 34.0931C47.5633 33.9768 47.4922 33.8532 47.4329 33.7238C47.3397 33.511 47.2937 33.2803 47.2981 33.0478C47.295 32.7975 47.3416 32.5492 47.4353 32.3174C47.521 32.1056 47.6521 31.9155 47.8194 31.7606C47.9867 31.6097 48.1819 31.4933 48.3938 31.4182C48.624 31.3373 48.8665 31.2972 49.1103 31.2997C49.3431 31.2976 49.5746 31.3332 49.7961 31.4052C50.0011 31.4719 50.1903 31.5801 50.352 31.7233C50.5139 31.8689 50.6403 32.0499 50.7216 32.2524C50.8106 32.4803 50.8542 32.7235 50.8499 32.9682C50.8533 33.1504 50.826 33.3317 50.7692 33.5047C50.7158 33.6593 50.6414 33.8056 50.5481 33.9397C50.5129 33.9902 50.475 34.0387 50.4343 34.085H52.2231L51.1242 35.8712L52.357 37.5154H50.1955L49.9535 37.1786C49.819 37.2986 49.6669 37.3969 49.5024 37.47C49.2514 37.5789 48.9802 37.6328 48.7069 37.6283ZM49.1103 31.5853C48.8997 31.583 48.6904 31.6173 48.4915 31.6868C48.3152 31.7492 48.1529 31.846 48.0138 31.9716C47.8778 32.0976 47.7712 32.2523 47.7016 32.4245C47.6232 32.6216 47.5845 32.8323 47.5878 33.0445C47.5836 33.235 47.6205 33.4241 47.6959 33.5988C47.7686 33.7584 47.8622 33.9074 47.9743 34.0419L48.0961 34.1872L47.925 34.2684C47.6772 34.3891 47.4679 34.5772 47.3207 34.8113C47.1543 35.0769 47.0701 35.3862 47.0787 35.7C47.0787 36.2372 47.2223 36.6487 47.5047 36.923C47.7871 37.1973 48.1929 37.3385 48.7077 37.3385C48.9402 37.3425 49.1709 37.2969 49.3846 37.2046C49.5667 37.1261 49.7295 37.0083 49.8615 36.8597L49.9801 36.7201L50.344 37.2241H51.7777L50.7748 35.8874L51.7035 34.3714H50.4626L50.0971 35.0881L49.5726 34.3698L49.7098 34.2887C49.8257 34.22 49.9363 34.1427 50.0406 34.0574C50.1429 33.9739 50.2333 33.8767 50.3093 33.7684C50.3869 33.6563 50.4488 33.534 50.4932 33.4049C50.5404 33.2631 50.5636 33.1144 50.5618 32.965C50.5661 32.7584 50.5299 32.5529 50.4553 32.3604C50.3905 32.1987 50.2897 32.0541 50.1608 31.9376C50.028 31.8207 49.8729 31.7324 49.7049 31.6779C49.5133 31.615 49.3127 31.5837 49.1111 31.5853H49.1103ZM49.9914 34.4526L50.0527 34.5338L50.156 34.3317C50.1051 34.3755 50.0479 34.4153 49.9922 34.4526H49.9914ZM48.8352 36.2518C48.7549 36.255 48.6751 36.2381 48.603 36.2025C48.5309 36.1669 48.4687 36.1139 48.4221 36.0481C48.3343 35.9194 48.2894 35.7659 48.2938 35.6099C48.2919 35.4906 48.3159 35.3724 48.364 35.2634C48.4018 35.169 48.4685 35.0891 48.5544 35.0353L48.6649 34.9728L49.3548 35.8988L49.3104 35.98C49.266 36.0668 49.1974 36.1386 49.113 36.1868C49.0286 36.2349 48.932 36.2573 48.8352 36.251V36.2518ZM48.6205 35.3989C48.5943 35.466 48.5816 35.5378 48.5834 35.6099C48.5789 35.7054 48.6049 35.7998 48.6577 35.8793C48.6774 35.9075 48.7043 35.9299 48.7355 35.9441C48.7667 35.9584 48.8011 35.964 48.8352 35.9605C48.8838 35.9635 48.9324 35.9532 48.9756 35.9305C48.9851 35.9246 48.994 35.9178 49.0022 35.9102L48.6205 35.3989ZM49.024 33.7409L48.9433 33.6548C48.7866 33.4844 48.7001 33.2604 48.7012 33.0283C48.6985 32.9042 48.7292 32.7817 48.79 32.6736C48.8229 32.6147 48.8712 32.5659 48.9296 32.5324C48.988 32.499 49.0544 32.4821 49.1216 32.4837C49.187 32.4822 49.2514 32.4992 49.3076 32.533C49.3637 32.5667 49.4091 32.6158 49.4387 32.6745C49.4942 32.7839 49.5219 32.9055 49.5194 33.0283C49.5205 33.1661 49.4815 33.3012 49.4072 33.417C49.335 33.5286 49.2367 33.6206 49.1208 33.6849L49.024 33.7409ZM49.1281 32.7743C49.1114 32.7728 49.0947 32.7765 49.0803 32.7849C49.0658 32.7933 49.0543 32.8061 49.0474 32.8213C49.0132 32.8848 48.9965 32.9562 48.999 33.0283C48.998 33.1427 49.0287 33.2551 49.0877 33.3529C49.1186 33.3237 49.1457 33.2907 49.1684 33.2547C49.2124 33.1861 49.2352 33.1059 49.2338 33.0242C49.2369 32.9495 49.222 32.8752 49.1902 32.8076C49.1848 32.796 49.1758 32.7865 49.1646 32.7806C49.1534 32.7746 49.1406 32.7724 49.1281 32.7743ZM71.4865 31.8816L70.8499 32.7516V31.8816H68.7199V32.3417L68.5174 31.8816H66.7536L61.0952 31.8872V32.5576L60.6321 31.8872H58.9546L58.3479 32.7434V30.5725H56.3219L55.7297 32.0569L55.1439 30.5709H53.0985V32.8254H53.4213V35.3145H53.0985V37.5503H55.5368V35.5141H55.9193V37.552H58.3479V36.6592L58.949 37.552H60.6321L61.405 36.4328V33.8171H61.5147L62.3861 37.5503H63.7481L64.5896 33.8171H64.9567V35.7373H64.7413V37.5568H68.8829V37.1332L69.0709 37.5568H70.8459V36.6828L71.4865 37.5568H73.4383L74.1951 36.518V32.9122L73.4375 31.8816H71.4865ZM58.1938 32.9601V35.3137H58.0485V32.827H58.2906L58.1938 32.9601ZM66.9682 35.7373H66.6552V33.6995H66.9682V35.7373ZM70.7273 35.7373H70.6321V33.6995H70.7273V35.7373ZM72.4927 34.0777H72.4265V33.6995H72.4927V34.0777Z" fill="white"/>
<path d="M57.9968 37.1997H56.2694V35.6683H56.5873V33.7149L55.9797 35.1611H55.4755L54.9994 34.0249L54.8687 34.072V35.6683H55.1882V37.1997H53.4495V35.6683H53.7722V32.4748H53.4495V30.9247H54.9018L55.724 33.0104L56.555 30.9247H57.9928V32.4748H57.6943V35.6683H57.9928L57.9968 37.1997ZM61.054 36.3224L60.4488 37.1997H59.1353L58.5447 36.3224V33.0762L59.1353 32.2427H60.4488L61.054 33.1208V36.3224ZM60.0858 35.9897V33.4649H59.5097V35.9897H60.0858ZM64.709 33.4649H64.3104L63.4689 37.1981H62.662L61.7906 33.4649H61.4437V32.2395H62.896V33.4649H62.708L63.0695 35.0239L63.4164 33.4649H63.2099V32.2395H64.709V33.4649ZM66.5212 37.2046H65.0922V36.0903H65.3069V33.3472H65.0922V32.2338H66.5212V33.3472H66.3049V36.0903H66.5212V37.2046ZM69.2983 37.2046L68.3172 34.9858V36.0903H68.5326V37.2046H67.1037V36.0903H67.3191V33.3472H67.1037V32.2338H68.2865L69.2838 34.5053V33.3472H69.0676V32.2338H70.4965V33.3472H70.2819V36.0903H70.4965V37.2046H69.2983ZM73.8409 34.4299V36.4028L73.2575 37.2046H71.6608L71.0774 36.406V33.0307L71.6608 32.2338H73.2575L73.8409 33.0283V34.1312H72.8428V33.5128L72.7282 33.3472H72.1965L72.0763 33.5128V35.9264L72.1957 36.0903H72.7234L72.8428 35.924V35.4573H72.5636V34.4299H73.8409Z" fill="#006937"/>
</g>
<path d="M94.953 18.242C94.001 18.242 93.2813 18.4517 92.794 18.871C92.3067 19.279 92.063 19.8967 92.063 20.724V21.455H96.959V23.665H92.063V28H89.309V20.741C89.309 19.211 89.785 18.021 90.737 17.171C91.7003 16.321 93.0433 15.896 94.766 15.896C95.446 15.896 96.0863 15.9697 96.687 16.117C97.2877 16.253 97.809 16.457 98.251 16.729L97.401 18.905C96.721 18.463 95.905 18.242 94.953 18.242ZM102.964 28.136C101.933 28.136 101.128 27.864 100.55 27.32C99.972 26.7647 99.683 25.9827 99.683 24.974V15.386H102.335V24.821C102.335 25.2063 102.431 25.5067 102.624 25.722C102.828 25.926 103.111 26.028 103.474 26.028C103.61 26.028 103.746 26.011 103.882 25.977C104.029 25.943 104.143 25.9033 104.222 25.858L104.341 27.915C103.899 28.0623 103.44 28.136 102.964 28.136ZM110.084 26.011C110.56 26.011 110.979 25.943 111.342 25.807C111.716 25.6597 112.062 25.433 112.379 25.127L113.79 26.657C112.929 27.643 111.671 28.136 110.016 28.136C108.985 28.136 108.072 27.9377 107.279 27.541C106.486 27.133 105.874 26.572 105.443 25.858C105.012 25.144 104.797 24.3337 104.797 23.427C104.797 22.5317 105.007 21.727 105.426 21.013C105.857 20.2877 106.44 19.7267 107.177 19.33C107.925 18.922 108.764 18.718 109.693 18.718C110.566 18.718 111.359 18.905 112.073 19.279C112.787 19.6417 113.354 20.1743 113.773 20.877C114.204 21.5683 114.419 22.39 114.419 23.342L107.653 24.651C107.846 25.1043 108.146 25.4443 108.554 25.671C108.973 25.8977 109.483 26.011 110.084 26.011ZM109.693 20.724C109.024 20.724 108.48 20.9393 108.061 21.37C107.642 21.8007 107.421 22.3957 107.398 23.155L111.852 22.288C111.727 21.812 111.472 21.4323 111.087 21.149C110.702 20.8657 110.237 20.724 109.693 20.724ZM121.767 28L119.761 25.195L117.687 28H114.797L118.316 23.393L114.916 18.854H117.891L119.829 21.523L121.818 18.854H124.64L121.24 23.325L124.776 28H121.767Z" fill="#E87200"/>
<defs>
<clipPath id="clip0_179_1536">
<rect width="81" height="43" fill="white"/>
</clipPath>
</defs>
</svg>
